<svg xmlns="http://www.w3.org/2000/svg" viewBox="0 0 1200 630" width="1200" height="630">
  <!-- Background gradient -->
  <defs>
    <linearGradient id="bg" x1="0%" y1="0%" x2="100%" y2="100%">
      <stop offset="0%" style="stop-color:#1a1a2e"/>
      <stop offset="100%" style="stop-color:#16213e"/>
    </linearGradient>
  </defs>
  <rect width="1200" height="630" fill="url(#bg)"/>

  <!-- Apple logo -->
  <g transform="translate(100, 200) scale(0.15)" fill="#007AFF">
    <path d="M788.1 340.9c-5.8 4.5-108.2 62.2-108.2 190.5 0 148.4 130.3 200.9 134.2 202.2-.6 3.2-20.7 71.9-68.7 141.9-42.8 61.6-87.5 123.1-155.5 123.1s-85.5-39.5-164-39.5c-76.5 0-103.7 40.8-165.9 40.8s-105.6-57-155.5-127C46.7 781.5 0 643.5 0 515.9 0 330.1 118.5 231.8 234.9 231.8c65.6 0 120.2 43.1 161.4 43.1 39.1 0 100.2-45.8 175.8-45.8 28.4 0 130.5 2.6 197.1 98.9l18.9 12.9z"/>
    <path d="M554.1 0c5.8 59.5-17 118.1-53 158.6-36 40.5-93.1 71.5-148.3 67.5-6.5-56.2 18.3-115.4 52.1-152.5C441.8 37 504.5 4.5 554.1 0z"/>
  </g>

  <!-- Name -->
  <text x="240" y="280" font-family="system-ui, -apple-system, BlinkMacSystemFont, sans-serif" font-size="72" font-weight="700" fill="white">Amine Arous</text>

  <!-- Title -->
  <text x="240" y="350" font-family="system-ui, -apple-system, BlinkMacSystemFont, sans-serif" font-size="36" font-weight="400" fill="#007AFF">iOS Engineer</text>

  <!-- Tech badges -->
  <g transform="translate(240, 400)">
    <rect x="0" y="0" width="80" height="36" rx="18" fill="rgba(0, 122, 255, 0.2)"/>
    <text x="40" y="24" font-family="system-ui, -apple-system, sans-serif" font-size="16" font-weight="500" fill="#007AFF" text-anchor="middle">Swift</text>

    <rect x="95" y="0" width="100" height="36" rx="18" fill="rgba(0, 122, 255, 0.2)"/>
    <text x="145" y="24" font-family="system-ui, -apple-system, sans-serif" font-size="16" font-weight="500" fill="#007AFF" text-anchor="middle">SwiftUI</text>

    <rect x="210" y="0" width="165" height="36" rx="18" fill="rgba(0, 122, 255, 0.2)"/>
    <text x="292" y="24" font-family="system-ui, -apple-system, sans-serif" font-size="16" font-weight="500" fill="#007AFF" text-anchor="middle">Swift Concurrency</text>
  </g>

  <!-- Experience hint -->
  <text x="240" y="510" font-family="system-ui, -apple-system, BlinkMacSystemFont, sans-serif" font-size="24" font-weight="400" fill="rgba(255,255,255,0.6)">15+ years of experience</text>

  <!-- URL -->
  <text x="240" y="560" font-family="system-ui, -apple-system, BlinkMacSystemFont, sans-serif" font-size="20" font-weight="400" fill="rgba(255,255,255,0.4)">aminearous.github.io</text>
</svg>
